<?xml version="1.0" standalone="no"?>
<!DOCTYPE svg PUBLIC "-//W3C//DTD SVG 20010904//EN"
 "http://www.w3.org/TR/2001/REC-SVG-20010904/DTD/svg10.dtd">
<svg version="1.0" xmlns="http://www.w3.org/2000/svg"
 width="335.000000pt" height="335.000000pt" viewBox="0 0 335.000000 335.000000"
 preserveAspectRatio="xMidYMid meet">
<metadata>
Created by potrace 1.11, written by Peter Selinger 2001-2013
</metadata>
<g transform="translate(0.000000,335.000000) scale(0.100000,-0.100000)"
fill="#000000" stroke="none">
<path d="M1314 3220 c3 -14 13 -61 22 -105 9 -44 18 -87 21 -95 3 -8 7 -28 9
-44 1 -16 7 -49 13 -75 12 -52 18 -88 26 -146 3 -22 8 -56 10 -75 17 -120 22
-312 10 -389 -22 -149 -92 -245 -211 -291 -50 -20 -81 -24 -199 -26 -77 -1
-165 2 -195 7 -30 5 -71 11 -90 14 -19 3 -71 13 -115 22 -44 9 -87 17 -95 18
-8 1 -22 4 -30 7 -13 5 -203 52 -253 63 -10 2 -27 7 -38 10 -10 4 -19 4 -19 1
0 -5 84 -34 118 -41 11 -2 30 -9 41 -15 12 -6 21 -8 21 -4 0 3 6 2 12 -3 7 -6
31 -16 53 -22 22 -7 47 -15 55 -18 8 -4 17 -7 20 -7 17 -4 120 -45 210 -83
385 -164 519 -327 451 -552 -12 -40 -30 -86 -40 -104 -34 -59 -65 -112 -73
-122 -5 -5 -32 -41 -60 -80 -29 -38 -57 -75 -63 -81 -5 -6 -35 -40 -65 -74
-75 -85 -86 -97 -235 -251 -113 -116 -117 -125 -14 -29 14 14 37 34 50 45 21
18 215 183 246 210 52 45 304 215 319 215 2 0 27 11 56 24 265 120 447 -3 603
-407 26 -67 51 -131 55 -142 8 -21 62 -193 66 -210 2 -9 16 -57 55 -190 l8
-30 -3 30 c-4 31 -12 72 -22 115 -6 24 -9 41 -18 95 -3 14 -7 33 -10 43 -5 18
-15 78 -21 122 -2 14 -5 39 -8 55 -24 130 -35 366 -22 445 28 173 100 266 238
309 53 16 85 19 217 16 85 -2 166 -6 180 -8 14 -3 41 -7 60 -11 35 -6 154 -30
200 -40 48 -11 85 -17 90 -15 3 1 15 -3 26 -9 12 -6 34 -14 50 -17 16 -3 65
-14 109 -25 43 -10 81 -17 83 -15 2 2 -16 9 -39 15 -24 6 -75 22 -114 36 -38
14 -81 27 -95 30 -13 3 -29 9 -35 14 -5 4 -14 8 -18 8 -39 -2 -426 170 -468
208 -8 8 -19 14 -23 14 -5 0 -27 15 -49 33 -177 138 -207 279 -106 487 74 151
214 323 503 618 91 92 114 125 39 55 -86 -81 -197 -179 -276 -242 -45 -36 -91
-74 -102 -84 -28 -25 -200 -139 -258 -171 -118 -64 -254 -88 -337 -60 -107 37
-182 118 -269 291 -43 86 -135 321 -145 371 -1 9 -6 24 -9 32 -7 16 -55 173
-62 203 -17 74 -37 142 -42 146 -3 4 -3 -5 1 -19z"/>
<path d="M2076 97 c3 -10 9 -15 12 -12 3 3 0 11 -7 18 -10 9 -11 8 -5 -6z"/>
</g>
</svg>
