<?xml version="1.0" standalone="no"?>
<!DOCTYPE svg PUBLIC "-//W3C//DTD SVG 20010904//EN"
 "http://www.w3.org/TR/2001/REC-SVG-20010904/DTD/svg10.dtd">
<svg version="1.0" xmlns="http://www.w3.org/2000/svg"
 width="614.000000pt" height="614.000000pt" viewBox="0 0 614.000000 614.000000"
 preserveAspectRatio="xMidYMid meet">
<metadata>
Created by potrace 1.11, written by Peter Selinger 2001-2013
</metadata>
<g transform="translate(0.000000,614.000000) scale(0.100000,-0.100000)"
fill="#000000" stroke="none">
<path d="M2189 6131 c9 -6 10 -10 2 -16 -9 -5 -9 -11 1 -22 7 -9 13 -21 14
-27 0 -6 2 -17 2 -24 1 -7 7 -10 13 -6 8 4 8 0 0 -15 -7 -11 -8 -21 -3 -21 5
0 8 -16 7 -35 0 -19 3 -35 8 -35 4 0 5 -4 2 -10 -3 -5 -1 -10 4 -10 6 0 11 -5
11 -11 0 -5 -6 -7 -12 -3 -10 6 -10 5 -1 -7 7 -9 14 -32 15 -52 2 -20 7 -37
12 -37 5 0 6 -3 3 -7 -4 -3 -2 -12 4 -19 6 -7 6 -14 0 -18 -5 -3 -7 -15 -4
-26 3 -11 9 -18 13 -15 11 7 7 -29 -5 -37 -6 -5 -5 -8 3 -8 7 0 11 -4 8 -8 -2
-4 -1 -14 4 -22 5 -9 5 -19 -2 -27 -8 -11 -7 -12 7 -7 13 5 16 4 11 -4 -12
-19 -16 -53 -5 -47 5 4 9 -9 9 -29 0 -19 6 -37 13 -39 10 -4 10 -6 0 -6 -7 -1
-13 -6 -13 -12 0 -5 5 -7 10 -4 6 4 10 3 9 -2 -1 -4 0 -12 1 -18 1 -5 1 -29 0
-52 -1 -28 3 -43 10 -43 10 0 10 -3 1 -14 -9 -10 -9 -16 -1 -21 6 -4 10 -24 9
-46 -2 -21 1 -42 6 -46 4 -5 5 -2 0 6 -6 10 -4 12 4 6 9 -5 10 -10 2 -18 -16
-16 -13 -30 5 -23 14 5 15 4 4 -9 -7 -8 -9 -15 -4 -15 5 0 2 -5 -6 -10 -13 -8
-13 -10 2 -10 15 0 16 -4 8 -26 -6 -14 -6 -23 -1 -20 5 3 11 -1 14 -9 4 -10 1
-12 -11 -9 -14 5 -13 3 2 -10 13 -10 15 -16 7 -16 -10 0 -11 -3 -2 -13 8 -10
7 -17 -1 -25 -8 -8 -8 -12 -1 -12 6 0 13 -11 15 -25 3 -13 2 -22 -2 -20 -5 3
-11 -2 -14 -11 -3 -8 -2 -12 3 -9 5 3 12 1 16 -5 3 -5 3 -10 -2 -10 -4 0 -8
-11 -8 -24 0 -13 3 -22 7 -20 12 7 14 -30 4 -49 -8 -13 -7 -20 4 -27 8 -5 10
-10 4 -10 -6 0 -10 -12 -8 -27 1 -16 3 -28 4 -28 1 0 3 -8 5 -18 2 -9 -1 -14
-7 -11 -6 4 -6 -1 1 -13 7 -14 7 -23 -1 -31 -9 -9 -9 -12 1 -12 11 0 11 -3 1
-15 -10 -12 -10 -15 1 -15 11 0 11 -2 -1 -10 -13 -9 -13 -10 0 -10 13 0 13 -1
0 -10 -13 -9 -13 -10 0 -10 13 0 13 -1 0 -10 -11 -7 -11 -10 -2 -10 8 0 10 -5
5 -12 -12 -21 -12 -38 0 -38 7 0 4 -5 -6 -11 -18 -10 -18 -11 0 -32 10 -11 12
-17 4 -12 -11 6 -13 4 -8 -8 3 -10 3 -17 -1 -17 -4 0 -6 -17 -4 -39 2 -21 -1
-42 -7 -45 -6 -4 -11 -14 -11 -22 0 -8 4 -12 10 -9 15 9 -1 -28 -19 -43 -9 -8
-10 -11 -3 -7 14 7 17 -11 2 -20 -5 -3 -10 -11 -10 -16 0 -6 5 -7 10 -4 6 4 1
-10 -10 -30 -11 -20 -16 -34 -10 -30 5 3 7 0 4 -9 -3 -8 -12 -17 -21 -20 -13
-5 -13 -9 -2 -23 12 -15 12 -16 -6 -9 -16 6 -17 5 -8 -5 10 -10 9 -15 -5 -25
-11 -9 -13 -13 -4 -14 7 0 10 -5 7 -10 -4 -6 -11 -8 -16 -4 -6 3 -9 -2 -7 -12
2 -12 -2 -18 -11 -16 -8 2 -11 -3 -8 -13 4 -8 2 -15 -3 -15 -6 0 -10 -6 -10
-14 0 -8 -7 -17 -16 -20 -8 -3 -12 -10 -9 -16 3 -5 -1 -10 -9 -10 -10 0 -13
-6 -9 -17 3 -10 3 -15 -1 -11 -9 8 -45 -24 -39 -34 2 -5 -6 -8 -18 -8 -12 0
-20 -3 -16 -6 7 -8 -17 -34 -32 -34 -6 0 -11 -4 -11 -10 0 -5 -9 -10 -21 -10
-14 0 -19 -5 -16 -13 3 -8 -1 -14 -9 -14 -7 0 -11 4 -8 9 3 4 -2 5 -10 2 -9
-3 -13 -10 -10 -15 3 -5 -4 -10 -15 -10 -37 -2 -42 -4 -49 -14 -7 -10 -27 -17
-49 -18 -7 0 -13 -4 -13 -9 0 -5 -6 -8 -12 -7 -28 3 -39 -1 -32 -13 6 -10 5
-10 -7 -1 -12 10 -20 9 -39 -4 -13 -9 -20 -11 -16 -5 4 7 3 12 -3 12 -5 0 -12
-6 -14 -12 -4 -10 -6 -10 -6 0 -1 10 -5 10 -17 -2 -8 -9 -21 -16 -27 -16 -7 0
-6 4 3 10 8 5 12 12 8 15 -3 4 -12 0 -19 -8 -10 -10 -22 -12 -41 -7 -22 7 -26
5 -21 -8 5 -11 3 -13 -8 -6 -19 12 -82 12 -91 -1 -5 -6 -11 -5 -17 4 -8 12
-12 12 -25 2 -12 -11 -16 -11 -16 -1 0 10 -3 10 -15 0 -8 -7 -15 -8 -15 -3 0
5 -15 8 -32 6 -55 -6 -72 -4 -97 11 -9 6 -12 5 -7 -2 11 -18 -18 -20 -38 -3
-11 9 -17 11 -13 5 8 -14 -55 -13 -65 1 -3 6 -42 10 -86 10 -44 0 -80 4 -79 9
1 5 -22 9 -51 10 -35 1 -56 6 -62 16 -8 12 -10 12 -10 -4 0 -20 0 -20 -16 0
-8 10 -12 12 -8 4 7 -13 5 -13 -9 -1 -14 11 -17 11 -17 0 0 -11 -2 -11 -10 1
-6 9 -21 14 -42 12 -26 -2 -30 -1 -18 9 13 9 12 10 -3 5 -9 -3 -25 -9 -35 -12
-14 -5 -15 -4 -2 5 13 9 13 11 -2 11 -9 0 -19 -6 -21 -12 -3 -7 -6 -4 -6 7 -1
17 -3 17 -11 5 -8 -12 -10 -12 -11 5 0 11 -3 14 -6 8 -2 -7 -9 -13 -14 -13 -6
0 -7 6 -3 13 5 9 4 9 -6 0 -11 -10 -16 -9 -27 5 -8 9 -11 11 -7 3 5 -11 3 -13
-10 -8 -10 4 -22 7 -27 7 -6 0 -7 6 -3 13 5 8 2 8 -9 -2 -12 -9 -17 -10 -17
-2 0 7 -5 9 -10 6 -6 -4 -17 -1 -25 5 -8 7 -15 8 -15 3 0 -5 -10 -9 -22 -7
-13 1 -27 3 -31 3 -5 1 -5 6 -2 11 3 6 1 10 -4 10 -6 0 -11 -5 -11 -11 0 -5
-5 -7 -10 -4 -6 4 -8 10 -6 14 3 4 -8 6 -24 5 -18 -1 -31 4 -34 13 -5 12 -9
13 -20 4 -10 -9 -16 -8 -26 4 -10 12 -16 13 -26 4 -11 -9 -14 -8 -14 2 0 11
-2 11 -10 -1 -6 -10 -10 -11 -10 -2 0 6 -7 12 -15 12 -8 0 -15 6 -15 13 0 7
-3 8 -8 2 -13 -18 -35 -17 -28 1 5 14 4 15 -9 4 -11 -9 -15 -9 -15 -1 0 7 -5
9 -11 5 -6 -3 -15 0 -20 7 -5 9 -9 10 -9 2 0 -6 -8 -10 -18 -8 -9 2 -21 4 -25
4 -5 1 -5 6 -1 12 4 8 0 9 -15 4 -14 -4 -21 -2 -21 6 0 10 -3 10 -12 1 -7 -7
-17 -12 -22 -12 -6 0 -5 4 2 9 10 6 7 10 -13 13 -20 4 -25 2 -21 -9 3 -8 6
-19 6 -24 0 -6 4 -8 9 -4 6 3 14 -3 20 -12 10 -17 10 -17 11 1 0 20 0 20 16 0
8 -10 12 -12 8 -4 -6 11 -2 10 13 -3 11 -9 23 -14 27 -10 4 4 11 1 16 -7 8
-13 10 -13 10 -1 0 11 4 10 14 -4 7 -10 24 -20 37 -22 19 -2 21 -1 9 7 -9 6
-10 10 -3 10 6 0 15 -5 18 -11 4 -6 13 -8 21 -5 8 3 17 -1 21 -10 3 -8 12 -13
19 -10 9 3 14 -1 14 -12 0 -15 2 -15 10 -2 6 10 10 11 10 2 0 -6 3 -11 7 -11
26 4 43 -2 37 -13 -5 -9 -2 -8 9 1 15 12 17 12 11 -4 -6 -15 -4 -16 16 -5 18
10 21 9 15 -1 -6 -9 -3 -11 8 -6 12 4 17 1 17 -11 0 -15 2 -15 10 -2 7 11 10
11 10 2 0 -7 4 -11 9 -7 5 3 26 -5 47 -17 23 -13 34 -17 29 -8 -5 8 6 3 24 -9
27 -20 35 -21 42 -10 7 12 9 12 10 -1 1 -8 1 -18 1 -21 -1 -3 5 -6 13 -6 8 0
12 3 10 7 -2 4 2 7 10 7 8 0 12 -4 9 -9 -5 -7 10 -12 29 -9 4 0 7 -7 7 -16 0
-14 2 -15 9 -5 7 11 9 10 14 -3 5 -13 11 -14 27 -5 11 6 20 7 19 3 -3 -20 2
-27 11 -13 7 12 11 10 19 -10 5 -14 10 -19 10 -12 1 7 6 10 11 7 6 -4 7 -11 4
-17 -4 -6 2 -6 15 1 17 10 21 9 21 -4 0 -8 5 -15 11 -15 5 0 7 6 4 13 -4 6 3
1 15 -13 12 -14 19 -20 16 -13 -4 6 -2 14 4 18 5 3 10 -1 10 -10 0 -9 5 -13
10 -10 6 3 10 1 10 -5 0 -7 7 -9 16 -6 10 4 13 2 8 -6 -5 -8 -2 -9 9 -5 10 3
17 2 17 -3 0 -6 7 -10 15 -10 8 0 15 -5 15 -11 0 -8 6 -7 17 2 11 10 14 10 9
2 -4 -8 -1 -13 8 -13 9 0 16 -4 16 -10 0 -5 7 -10 16 -10 9 0 30 -10 47 -22
18 -13 39 -21 48 -20 10 2 24 -7 33 -20 9 -12 16 -17 16 -10 0 10 3 10 14 0 8
-7 12 -16 9 -20 -2 -4 3 -5 11 -2 9 3 16 1 16 -6 0 -6 4 -9 10 -5 13 8 50 -17
50 -33 0 -7 5 -10 11 -7 5 4 19 -1 29 -10 10 -9 24 -14 29 -10 7 4 11 -3 11
-17 0 -18 2 -20 10 -8 7 10 10 11 10 2 0 -7 8 -15 18 -19 9 -3 28 -18 42 -32
14 -15 23 -22 20 -16 -3 6 2 3 11 -7 9 -9 19 -14 23 -11 3 4 6 -1 6 -10 0 -10
7 -15 19 -12 14 3 18 -1 14 -11 -3 -9 1 -14 12 -14 9 0 13 -4 10 -10 -3 -5 -1
-10 5 -10 14 0 60 -46 60 -60 0 -9 14 -14 33 -11 4 0 6 -2 6 -6 -4 -23 2 -43
11 -38 6 3 10 0 10 -8 0 -8 7 -18 16 -21 9 -4 14 -13 10 -21 -3 -8 -1 -14 3
-12 5 1 8 -1 7 -5 0 -4 9 -15 22 -24 17 -12 20 -19 12 -29 -8 -10 -8 -15 1
-21 8 -5 9 -3 4 6 -5 9 -4 11 4 6 6 -4 8 -12 5 -18 -4 -6 -2 -13 5 -17 6 -4
12 -19 13 -34 1 -15 7 -27 13 -27 5 0 3 -5 -5 -10 -12 -8 -12 -10 5 -10 17 0
17 -2 5 -10 -13 -8 -12 -10 4 -10 19 0 19 0 1 -14 -18 -13 -18 -13 0 -24 16
-8 17 -13 6 -26 -9 -11 -10 -16 -2 -16 6 0 11 -5 11 -11 0 -5 -6 -7 -12 -3
-10 6 -10 5 -1 -7 10 -12 10 -18 0 -29 -9 -10 -9 -11 1 -6 14 8 17 -10 2 -19
-6 -3 -10 -12 -10 -18 0 -7 4 -6 10 3 6 9 10 10 10 3 0 -6 -5 -15 -11 -19 -8
-4 -7 -9 2 -14 10 -7 10 -12 -2 -26 -7 -9 -12 -27 -11 -40 2 -15 -2 -24 -10
-24 -10 0 -9 -3 2 -10 12 -8 12 -10 -5 -11 l-20 0 20 -9 c12 -5 14 -9 6 -9 -8
-1 -11 -4 -8 -8 4 -3 -1 -12 -11 -20 -12 -10 -13 -16 -5 -19 7 -3 9 -12 6 -20
-3 -7 -10 -11 -17 -7 -6 3 -8 3 -4 -2 4 -4 2 -15 -5 -23 -10 -13 -9 -14 3 -7
8 4 4 -2 -8 -15 -19 -18 -21 -24 -10 -31 10 -7 10 -9 0 -9 -7 0 -10 -5 -6 -11
3 -6 -7 -24 -22 -41 -16 -17 -23 -28 -16 -23 11 6 12 3 3 -14 -7 -11 -17 -21
-24 -21 -7 0 -6 -4 3 -10 11 -7 11 -10 2 -10 -7 0 -10 -5 -6 -12 4 -6 3 -8 -3
-5 -6 4 -17 -1 -24 -10 -12 -14 -12 -16 0 -9 9 6 12 5 10 -3 -3 -7 -9 -12 -14
-11 -5 1 -14 -14 -20 -32 -6 -18 -16 -32 -22 -31 -6 1 -9 -6 -6 -17 3 -12 0
-20 -6 -20 -7 0 -9 6 -5 13 4 7 3 9 -2 4 -5 -5 -10 -13 -10 -18 -1 -5 -2 -14
-3 -20 0 -5 -7 -7 -13 -3 -9 5 -9 2 1 -9 12 -15 11 -17 -10 -17 -19 0 -21 -2
-9 -10 13 -9 7 -14 -12 -11 -5 0 -7 -2 -6 -7 3 -15 -15 -42 -25 -35 -6 3 -7 1
-3 -6 5 -7 -3 -22 -19 -37 -14 -13 -23 -29 -20 -34 3 -6 -1 -10 -9 -10 -9 0
-15 -6 -13 -12 1 -8 -6 -12 -18 -10 -16 2 -17 1 -6 -7 12 -8 12 -11 -1 -25 -9
-8 -19 -12 -22 -8 -4 3 -4 -2 0 -13 6 -14 4 -17 -9 -12 -12 4 -14 2 -10 -10 5
-13 2 -15 -11 -10 -9 4 -15 3 -11 -2 7 -13 -5 -42 -16 -35 -5 3 -9 -2 -9 -10
0 -9 -7 -16 -15 -16 -9 0 -12 -6 -8 -17 4 -11 3 -14 -5 -9 -8 5 -12 -1 -12
-16 0 -18 -2 -20 -9 -9 -8 12 -11 9 -17 -12 -3 -16 -9 -26 -11 -23 -11 10 -31
-19 -22 -31 7 -7 6 -14 -2 -19 -8 -4 -9 -3 -5 4 4 7 2 12 -4 12 -7 0 -14 -9
-17 -21 -4 -16 -8 -17 -14 -7 -6 9 -9 7 -9 -9 0 -12 -6 -26 -13 -30 -8 -4 -17
-16 -20 -27 -5 -12 -13 -16 -24 -12 -10 4 -14 4 -11 0 4 -3 0 -13 -8 -21 -8
-8 -11 -19 -8 -25 4 -7 2 -8 -4 -4 -7 4 -12 0 -12 -10 0 -10 -3 -15 -6 -12 -7
8 -54 -36 -54 -51 0 -7 -4 -10 -8 -7 -5 3 -15 -6 -22 -19 -7 -13 -17 -22 -22
-19 -4 3 -8 -2 -8 -10 0 -9 -5 -16 -11 -16 -5 0 -7 -4 -4 -10 4 -6 -1 -7 -11
-3 -11 4 -15 2 -11 -4 4 -6 0 -13 -8 -17 -8 -3 -15 -13 -15 -21 0 -10 -5 -13
-12 -9 -7 5 -9 2 -5 -8 3 -10 0 -15 -11 -14 -9 0 -22 -11 -30 -26 -7 -16 -20
-28 -28 -28 -8 0 -13 -3 -11 -7 2 -5 -7 -18 -20 -30 -13 -12 -23 -19 -23 -15
-1 4 -7 -4 -15 -18 -7 -14 -19 -25 -27 -25 -7 -1 -12 -6 -11 -13 2 -7 -5 -12
-15 -12 -14 0 -15 -2 -2 -10 14 -9 7 -14 -13 -11 -12 2 -72 -71 -71 -86 1 -7
-2 -11 -6 -8 -4 3 -11 -6 -14 -19 -5 -19 -12 -24 -31 -22 -13 2 -22 -1 -19 -5
3 -5 0 -9 -6 -9 -7 0 -6 -5 2 -14 11 -12 15 -11 25 8 7 11 12 17 13 12 0 -18
50 45 50 64 0 10 4 22 10 25 6 3 7 -1 4 -9 -4 -9 -1 -16 6 -16 8 0 10 8 7 21
-4 17 -3 19 6 10 6 -6 15 -11 21 -11 6 0 5 5 -2 12 -15 15 -15 28 -1 28 5 0 7
-4 4 -10 -3 -5 -2 -10 4 -10 6 0 15 9 21 20 6 11 15 18 20 15 18 -11 21 17 4
31 -11 9 -13 13 -7 9 25 -12 53 -14 50 -2 -1 6 5 12 13 12 8 0 14 6 13 13 -2
7 2 12 8 12 5 0 7 5 3 12 -4 7 -3 8 4 4 6 -4 20 -1 31 6 15 9 17 15 9 25 -8
10 -7 12 5 7 10 -3 20 2 27 15 6 12 18 21 26 21 11 0 14 6 10 16 -3 8 -2 12 4
9 12 -7 42 8 42 21 0 5 5 8 10 6 6 -2 8 5 4 14 -6 15 -4 15 11 3 11 -9 14 -10
9 -1 -4 7 -2 12 4 12 6 0 8 5 5 10 -3 5 1 10 10 10 9 0 14 4 11 9 -4 5 4 7 16
4 19 -4 20 -3 8 6 -13 9 -13 11 1 11 9 0 24 11 33 25 9 14 23 25 32 25 8 0 17
7 20 15 4 8 10 12 15 9 8 -5 13 9 10 28 0 4 8 5 18 3 12 -2 23 5 31 20 7 14
17 22 22 19 4 -3 8 0 8 5 0 6 7 11 16 11 8 0 13 4 10 9 -3 5 1 14 9 21 13 11
14 10 9 -6 -6 -18 -6 -18 9 1 8 11 13 24 9 30 -3 5 3 3 14 -5 10 -8 16 -11 12
-6 -8 10 14 36 25 29 4 -2 7 3 7 11 0 8 5 18 12 22 7 5 9 2 4 -7 -4 -8 5 0 20
16 15 17 29 29 31 28 2 -2 11 -3 21 -2 10 0 12 3 4 6 -14 5 27 43 48 43 6 0 9
4 5 9 -3 6 3 8 15 6 11 -2 19 1 17 8 -1 7 8 12 19 11 16 0 20 4 16 15 -4 11
-1 13 13 8 16 -7 16 -5 4 10 -7 10 -9 15 -5 11 5 -4 16 -2 24 5 13 10 14 9 7
-3 -4 -8 2 -5 15 8 12 13 28 21 36 18 9 -3 11 0 7 11 -4 9 -2 14 3 11 12 -8
35 17 26 28 -4 5 2 2 12 -6 11 -8 17 -10 13 -4 -4 7 3 14 18 18 14 4 23 11 20
16 -3 5 -1 11 5 15 5 3 10 2 10 -3 0 -6 9 -8 20 -5 11 3 17 9 14 14 -3 5 -10
6 -16 3 -7 -5 -8 -2 -4 5 5 7 14 10 22 7 8 -3 14 -1 14 4 0 5 6 7 14 4 7 -3
16 2 20 11 3 9 10 13 16 10 5 -3 10 -1 10 5 0 6 5 8 10 5 6 -3 13 1 16 10 6
13 8 14 15 3 6 -9 9 -10 9 -1 0 7 18 21 40 32 22 11 37 14 34 8 -3 -7 0 -5 8
4 7 9 21 15 31 13 9 -1 17 2 17 7 0 6 4 8 9 4 5 -3 13 0 17 6 4 7 3 9 -4 5 -6
-3 -13 -2 -16 3 -3 5 8 7 24 6 17 -1 30 2 30 7 0 6 7 5 16 -2 8 -8 14 -9 13
-4 -4 21 2 26 18 13 14 -12 16 -12 8 0 -6 11 -2 13 18 9 16 -3 24 -1 21 7 -4
10 12 14 79 16 11 0 15 5 10 12 -4 8 -1 8 9 -1 13 -10 17 -10 21 0 4 10 7 10
15 -1 8 -11 10 -11 14 0 5 12 9 12 28 1 12 -8 19 -9 15 -3 -4 7 7 11 29 11 22
0 36 -5 36 -12 0 -9 4 -8 11 2 8 11 12 12 16 3 3 -9 10 -10 23 -3 13 7 19 6
23 -4 3 -8 16 -11 36 -8 20 3 31 0 31 -8 0 -8 8 -10 21 -7 16 4 19 2 15 -10
-5 -13 -4 -14 9 -3 10 8 15 9 15 1 0 -6 9 -11 21 -11 11 0 17 -4 14 -10 -3 -5
3 -10 15 -10 11 0 23 -7 27 -16 3 -8 12 -13 20 -10 8 3 11 1 8 -4 -3 -6 0 -10
7 -10 17 0 68 -44 68 -59 0 -7 4 -10 8 -7 11 7 53 -40 44 -49 -4 -3 2 -3 12 1
12 5 17 4 13 -3 -7 -12 28 -44 39 -35 5 4 2 -1 -5 -10 -12 -16 -11 -18 3 -18
10 0 14 -4 11 -10 -3 -5 2 -10 11 -10 10 0 15 -3 11 -6 -3 -3 8 -20 24 -36 16
-17 29 -37 29 -44 0 -8 5 -14 10 -14 6 0 10 -9 10 -20 0 -11 7 -20 16 -20 8 0
12 -4 9 -10 -8 -13 19 -52 31 -42 4 4 2 -2 -6 -12 -8 -11 -10 -17 -5 -14 11 7
37 -17 28 -26 -3 -3 3 -13 14 -23 10 -10 13 -14 6 -9 -21 14 -15 -1 10 -25 12
-12 16 -18 9 -14 -11 6 -12 3 -2 -14 6 -13 16 -19 23 -14 7 4 7 0 -2 -10 -9
-11 -10 -17 -2 -17 6 0 11 -7 11 -15 0 -8 5 -15 11 -15 5 0 8 -4 5 -9 -3 -5 1
-14 10 -21 8 -7 12 -20 9 -28 -3 -9 0 -12 8 -9 9 3 12 -4 11 -24 -1 -20 3 -29
13 -29 12 0 13 -3 4 -14 -8 -10 -9 -16 -1 -21 6 -3 8 -11 5 -16 -3 -5 0 -6 8
-3 10 4 13 -3 12 -26 -1 -17 3 -34 8 -37 6 -4 7 -1 2 7 -6 9 -4 11 4 5 7 -4
10 -16 8 -27 -3 -12 0 -22 10 -25 12 -5 12 -7 1 -14 -11 -7 -11 -9 1 -9 8 0
11 -6 7 -15 -4 -10 2 -19 17 -25 13 -5 16 -9 7 -10 -13 0 -13 -1 0 -10 8 -5
11 -10 6 -10 -5 0 -2 -8 5 -17 8 -9 9 -14 3 -10 -6 3 -11 0 -11 -8 0 -8 4 -12
9 -9 4 3 8 -2 8 -10 0 -9 5 -16 11 -16 6 0 9 -9 6 -19 -3 -12 1 -22 10 -25 11
-5 12 -10 2 -27 -8 -15 -8 -19 0 -15 7 4 11 -1 11 -13 0 -12 4 -21 8 -21 5 0
9 -7 10 -15 1 -8 3 -22 4 -30 1 -8 5 -15 10 -15 4 0 8 -5 8 -11 0 -5 -5 -7
-11 -3 -6 3 -3 -5 6 -20 10 -14 13 -26 9 -26 -5 0 -3 -4 5 -9 7 -5 14 -20 14
-35 0 -14 3 -24 7 -21 4 3 8 -1 7 -8 -1 -35 4 -48 16 -41 9 5 9 4 0 -6 -9 -10
-9 -16 2 -26 7 -8 11 -23 8 -34 -3 -12 0 -20 7 -20 8 0 11 -11 8 -31 -4 -22 1
-34 16 -45 11 -8 16 -14 10 -14 -6 0 -11 -6 -11 -14 0 -8 6 -12 15 -9 12 5 12
2 3 -15 -8 -15 -8 -22 -1 -22 5 0 10 -8 10 -18 0 -10 6 -24 13 -31 6 -8 7 -11
1 -8 -6 3 -11 0 -11 -8 0 -8 4 -12 8 -10 12 8 18 -22 7 -33 -8 -8 -7 -13 5
-17 10 -5 14 -16 12 -36 -3 -20 0 -29 10 -29 8 0 12 -9 11 -23 -2 -16 3 -23
15 -24 10 -1 22 3 25 9 4 6 3 8 -3 5 -6 -4 -14 0 -17 9 -9 22 -8 26 5 18 8 -4
8 0 0 15 -7 11 -9 21 -6 21 3 0 -1 13 -10 30 -9 16 -13 30 -9 30 4 0 1 6 -5
14 -8 10 -9 16 -2 21 7 4 3 14 -10 28 -19 20 -19 22 -3 34 10 7 13 13 8 13 -6
0 -16 12 -23 28 -10 25 -10 26 4 8 18 -23 20 -14 4 16 -6 11 -11 36 -11 54 0
19 -4 34 -8 34 -5 0 -7 8 -5 18 1 9 -1 24 -6 33 -5 10 -3 21 4 28 9 10 8 11
-7 5 -16 -6 -17 -5 -7 14 11 20 8 26 -11 23 -12 -2 -9 6 8 23 13 14 14 16 0
16 -8 0 -18 5 -22 12 -4 7 -3 8 4 4 16 -10 15 7 0 23 -7 8 -8 11 -2 8 6 -3 11
0 11 8 0 8 -4 12 -9 9 -4 -3 -8 2 -8 10 0 9 5 16 11 16 5 0 7 5 4 10 -4 6 -10
8 -15 5 -4 -3 -6 5 -2 17 4 16 2 19 -8 13 -10 -6 -11 -4 -4 6 12 19 14 39 4
39 -4 0 -7 20 -7 44 1 24 -1 42 -5 40 -4 -2 -9 0 -13 6 -3 5 -2 10 2 10 14 0
7 51 -8 61 -8 5 -9 9 -2 9 6 0 9 9 6 21 -3 12 0 24 6 29 9 5 8 9 -4 13 -10 5
-14 3 -9 -5 4 -7 3 -8 -4 -4 -9 5 -9 13 -2 26 7 13 7 21 0 25 -5 3 -10 11 -10
17 0 6 7 5 18 -3 15 -12 16 -12 5 2 -7 9 -9 20 -5 24 4 5 1 4 -7 0 -11 -6 -13
-4 -8 7 3 9 0 21 -6 28 -7 8 -8 11 -1 7 7 -4 10 6 8 31 -2 20 -3 41 -3 45 -1
5 -7 5 -13 1 -10 -6 -10 -4 0 8 10 13 10 17 0 21 -8 3 -5 6 7 7 19 1 19 1 2
11 -15 9 -16 13 -5 27 10 12 10 14 1 8 -7 -4 -13 -3 -13 3 0 5 5 13 10 16 6 4
7 12 3 18 -5 7 -8 44 -9 83 -1 39 -4 76 -8 83 -4 6 -2 11 5 11 8 0 8 4 -1 15
-10 12 -10 15 1 15 11 0 11 2 -1 10 -8 5 -10 10 -5 10 6 0 10 38 10 95 -1 52
3 95 7 95 4 0 8 -5 8 -12 0 -6 3 -8 7 -4 5 4 -1 14 -11 22 -11 8 -14 14 -8 14
7 0 12 13 12 28 0 15 6 34 13 41 10 11 9 13 -6 8 -17 -6 -17 -5 -3 15 12 16
13 25 4 35 -8 11 -7 12 7 7 15 -6 16 -4 6 15 -10 17 -9 22 4 28 13 4 14 8 4
14 -11 6 -10 9 4 15 9 3 17 10 17 16 0 5 -6 6 -12 3 -7 -4 -4 1 6 9 15 12 16
16 5 16 -11 1 -10 4 3 14 14 10 15 15 5 25 -9 10 -8 11 7 5 13 -5 17 -4 12 4
-4 7 -2 12 3 12 6 0 11 4 11 10 0 5 -8 6 -17 3 -17 -7 -17 -6 0 11 9 9 17 22
17 28 0 6 3 8 7 5 3 -4 13 3 22 16 15 21 17 26 20 48 0 5 6 7 13 3 7 -4 8 -3
4 4 -4 6 2 19 13 29 11 9 17 21 14 26 -3 6 -1 7 5 3 6 -4 18 5 28 19 9 13 21
22 27 18 7 -4 8 0 3 12 -6 16 -4 16 11 4 13 -11 15 -11 9 -1 -5 9 -1 15 13 19
11 3 18 9 15 14 -3 5 0 9 7 9 6 0 18 8 26 18 8 9 12 11 8 5 -3 -7 -1 -13 4
-13 6 0 11 7 11 15 0 9 6 12 15 9 8 -4 15 -1 15 5 0 6 7 8 17 4 11 -4 14 -3 9
5 -4 7 -3 12 3 12 5 0 12 -6 14 -12 3 -8 6 -5 6 5 1 10 5 16 11 12 5 -3 18 -1
30 5 11 5 29 15 41 21 15 7 19 7 15 0 -4 -7 -1 -8 8 -5 9 3 13 11 9 18 -3 6 4
2 16 -8 19 -17 21 -17 15 -3 -5 13 -2 16 12 10 13 -5 15 -3 9 8 -8 12 -6 12 8
0 14 -11 17 -11 17 0 0 11 2 11 10 -1 8 -13 13 -9 12 10 0 3 27 5 61 4 35 -1
65 4 69 10 6 8 8 8 8 0 0 -11 52 -10 71 1 5 4 9 0 9 -7 0 -10 2 -10 9 1 7 10
10 10 13 1 3 -10 9 -10 25 -1 12 6 24 8 26 4 3 -5 50 -8 105 -8 76 0 98 -3 91
-12 -7 -8 -5 -10 10 -6 12 3 18 9 15 14 -3 5 2 6 10 3 9 -3 13 -11 9 -18 -4
-6 1 -5 10 3 11 9 17 10 17 2 0 -6 5 -11 11 -11 5 0 7 6 3 13 -6 9 -5 9 7 0
12 -10 18 -10 29 0 10 10 11 9 5 -2 -6 -11 -4 -13 8 -8 19 7 49 -1 42 -12 -2
-4 2 -8 9 -8 8 0 12 7 9 16 -4 13 -2 13 10 -1 10 -13 17 -14 25 -6 8 8 15 8
27 -2 12 -10 18 -10 30 0 13 11 14 10 10 -2 -4 -11 2 -14 25 -12 17 1 30 -3
30 -9 0 -7 5 -5 10 3 5 8 10 10 10 5 0 -9 32 -16 80 -17 8 -1 24 -8 34 -17 11
-9 16 -11 13 -5 -4 7 0 15 8 18 9 3 18 -1 21 -8 3 -8 14 -12 25 -9 12 3 19 0
19 -8 0 -11 2 -11 10 1 8 12 10 12 11 -5 l0 -20 9 20 c7 16 9 17 9 3 1 -12 7
-15 23 -10 15 4 19 2 13 -8 -6 -10 -4 -10 10 -3 19 11 58 6 50 -6 -2 -4 12 -6
31 -5 22 2 34 -1 34 -9 0 -7 9 -13 19 -13 11 0 17 5 13 11 -3 5 6 2 21 -8 15
-9 27 -13 27 -7 0 5 5 10 11 10 5 0 7 -4 4 -10 -3 -5 -2 -10 4 -10 5 0 12 6
14 13 3 7 6 5 6 -5 1 -11 6 -15 16 -12 9 4 15 0 15 -7 0 -11 2 -11 9 0 7 11
13 12 23 3 8 -6 26 -13 41 -16 15 -2 32 -8 39 -13 7 -4 21 -6 30 -5 10 2 27
-2 39 -8 17 -10 20 -9 13 2 -4 7 2 5 14 -5 11 -11 26 -16 31 -12 6 3 11 0 11
-7 0 -10 2 -10 9 1 7 11 9 11 14 0 4 -11 6 -11 6 -1 1 10 4 10 15 0 8 -7 11
-17 8 -22 -3 -5 1 -5 9 0 20 12 39 14 39 3 0 -5 5 -9 11 -9 5 0 7 6 3 13 -4 6
5 1 19 -12 15 -14 27 -19 27 -13 0 7 7 12 16 12 8 0 12 -5 8 -11 -4 -8 1 -9
16 -4 15 5 20 3 16 -3 -3 -6 -2 -13 3 -16 5 -4 12 -2 16 4 3 5 11 10 16 10 6
0 8 -4 5 -8 -2 -4 4 -9 15 -9 11 -1 19 3 17 8 -2 6 -7 9 -10 7 -4 -2 -14 6
-23 17 -9 11 -14 14 -10 8 4 -8 0 -13 -9 -13 -9 0 -16 5 -16 11 0 5 -4 8 -9 4
-5 -3 -12 -1 -16 5 -4 6 -10 8 -15 5 -5 -3 -29 4 -54 16 -45 21 -66 27 -99 28
-10 1 -16 5 -12 11 3 5 -7 8 -25 5 -16 -2 -30 1 -30 6 0 6 -4 7 -10 4 -5 -3
-10 -1 -10 4 0 6 -13 11 -30 11 -16 0 -30 5 -30 11 0 7 -10 9 -25 7 -14 -3
-30 1 -36 8 -6 8 -20 14 -31 14 -10 0 -22 8 -25 17 -6 15 -7 15 -14 -3 -7 -17
-8 -17 -8 -1 -1 10 -5 15 -11 12 -5 -3 -10 0 -10 7 0 9 -3 9 -10 -2 -6 -10
-10 -11 -10 -2 0 6 -7 12 -15 12 -8 0 -15 5 -15 10 0 6 -5 10 -11 10 -5 0 -8
-4 -5 -9 4 -5 -2 -8 -11 -7 -9 2 -19 8 -21 14 -2 6 -11 8 -19 5 -12 -5 -15 -2
-10 9 4 12 1 14 -15 10 -16 -4 -19 -2 -13 9 6 11 5 11 -5 2 -10 -9 -17 -7 -33
8 -15 13 -24 16 -33 8 -8 -7 -14 -7 -19 0 -3 6 -15 16 -27 22 -15 8 -19 8 -13
-1 5 -8 1 -8 -13 1 -12 7 -18 18 -14 24 3 5 -2 4 -11 -4 -15 -12 -17 -11 -17
3 0 9 -5 16 -11 16 -5 0 -7 -6 -3 -12 6 -9 3 -9 -9 0 -9 8 -21 11 -27 7 -5 -3
-10 1 -10 9 0 10 -6 13 -15 10 -8 -4 -17 1 -21 9 -3 8 -13 14 -22 13 -9 -2
-23 3 -30 11 -8 7 -18 11 -23 8 -5 -4 -9 -1 -9 5 0 6 -4 8 -10 5 -6 -3 -10 -2
-10 4 0 6 -7 8 -15 5 -8 -4 -17 1 -21 9 -3 9 -12 13 -19 11 -7 -3 -16 0 -20 5
-3 6 -11 8 -17 5 -7 -5 -9 -2 -6 8 5 11 0 14 -19 10 -18 -3 -24 -1 -19 6 5 8
1 10 -9 6 -9 -4 -23 2 -33 12 -9 11 -28 20 -42 22 -14 1 -26 7 -28 12 -2 6
-10 10 -18 10 -8 0 -14 5 -14 11 0 5 -5 7 -10 4 -6 -3 -13 0 -16 8 -3 8 -14
17 -25 20 -12 3 -17 1 -12 -5 3 -7 1 -8 -5 -4 -7 4 -12 14 -12 21 0 9 -6 12
-15 9 -8 -4 -15 -1 -15 5 0 7 -6 11 -12 9 -17 -3 -69 32 -63 42 3 5 -5 6 -17
3 -19 -4 -20 -3 -8 6 12 9 11 11 -8 11 -16 0 -21 4 -16 12 4 7 4 10 -1 6 -4
-4 -17 -2 -29 4 -11 7 -24 11 -28 10 -4 -1 -4 6 -1 15 4 10 2 14 -5 9 -6 -3
-15 2 -21 11 -5 10 -13 18 -18 18 -4 0 -7 4 -5 9 2 5 -4 3 -13 -4 -13 -11 -14
-10 -8 5 5 15 3 17 -12 11 -11 -4 -16 -4 -13 0 7 6 -15 34 -27 34 -3 0 -18 12
-33 26 -15 15 -21 23 -13 19 9 -5 12 -4 7 3 -4 7 -14 12 -22 12 -8 0 -12 5 -9
10 3 6 1 10 -5 10 -6 0 -8 5 -4 13 5 7 0 6 -11 -3 -17 -14 -18 -13 -12 8 4 18
2 22 -9 18 -9 -3 -12 -1 -9 4 3 6 -1 13 -10 16 -9 4 -14 13 -11 21 3 8 2 12
-3 9 -5 -3 -15 2 -22 11 -12 14 -12 16 1 9 8 -4 7 -1 -3 7 -10 9 -18 18 -18
21 1 3 0 8 0 11 -1 3 -2 9 -3 15 0 5 -10 20 -21 32 -11 13 -18 27 -17 32 1 4
-2 14 -9 22 -6 7 -8 18 -4 24 3 5 2 10 -3 10 -6 0 -8 9 -5 20 3 11 0 20 -6 20
-6 0 -11 7 -11 16 0 8 4 12 10 9 6 -3 7 1 4 9 -3 9 -9 14 -13 11 -4 -2 -8 2
-8 10 0 8 3 12 6 11 8 -6 5 69 -3 83 -4 6 -2 11 4 11 6 0 8 5 3 13 -9 15 -5
48 10 65 8 10 7 16 -4 23 -9 6 -10 9 -2 9 7 0 10 7 7 15 -4 8 -1 15 5 15 6 0
8 7 5 15 -4 8 -2 15 4 15 6 0 8 9 5 20 -4 15 0 20 13 21 15 0 16 2 4 7 -8 4
-16 13 -18 21 -3 12 0 12 12 2 12 -10 14 -8 12 14 -2 14 1 28 7 32 6 4 7 1 2
-7 -5 -9 -4 -11 4 -6 9 6 9 11 1 21 -9 10 -7 16 7 23 10 6 19 20 20 33 1 12 7
26 14 30 6 4 9 17 6 29 -4 16 -2 19 7 11 9 -7 12 -4 13 12 1 12 7 23 13 25 5
2 8 8 4 13 -3 5 0 9 6 9 7 0 9 7 6 15 -3 9 1 18 9 21 7 3 21 17 30 31 12 18
13 23 4 18 -8 -3 -6 0 3 8 10 8 15 17 11 20 -3 4 -1 7 5 7 7 0 12 7 12 16 0 8
4 13 8 10 4 -2 14 5 21 17 11 18 11 20 0 10 -7 -7 -18 -13 -23 -13 -6 0 0 7
12 16 12 8 20 20 17 25 -3 5 0 6 8 3 8 -3 17 2 21 11 4 11 2 14 -7 9 -8 -5 -8
-2 2 9 7 9 18 14 24 10 6 -3 7 -1 3 5 -4 7 -2 12 4 12 6 0 8 5 5 10 -3 6 2 10
12 11 12 0 13 2 5 6 -10 4 -7 9 8 20 12 8 19 21 16 29 -3 9 0 11 11 7 10 -4
14 -2 10 4 -4 6 0 14 9 17 9 3 14 13 11 21 -4 10 -1 12 10 8 10 -4 14 -2 9 5
-3 6 2 15 11 21 10 6 14 11 10 11 -4 0 3 11 15 24 13 13 26 21 30 19 4 -2 5 3
2 11 -4 9 -1 16 6 16 7 0 10 7 6 15 -5 13 -2 14 15 4 13 -6 19 -7 15 -1 -8 14
4 43 15 36 5 -3 6 3 2 12 -5 13 -2 16 8 12 15 -6 46 28 41 45 -1 4 2 7 8 7 5
0 10 8 10 18 0 13 2 14 9 4 6 -10 10 -7 15 12 4 15 11 24 16 21 6 -3 10 1 10
9 0 9 5 16 10 16 6 0 10 8 10 17 0 9 3 14 6 10 10 -10 36 22 28 34 -4 7 -3 9
3 6 6 -4 19 1 29 9 17 14 17 15 1 10 -11 -3 -16 -2 -12 4 3 6 11 10 17 10 6 0
17 8 25 18 8 9 11 11 7 3 -4 -9 -3 -12 4 -7 6 3 9 15 7 26 -2 12 1 17 9 14 7
-3 19 2 26 11 7 8 9 15 5 15 -5 0 2 9 15 20 13 11 27 20 32 20 4 0 8 7 8 15 0
8 5 15 11 15 5 0 8 4 5 9 -3 5 1 12 10 15 8 3 12 2 9 -4 -3 -6 -3 -10 0 -10 3
0 11 13 16 30 6 16 16 28 22 27 7 -1 11 6 11 15 -1 10 1 17 5 16 3 0 15 0 26
1 17 1 18 3 5 11 -15 9 -13 11 13 14 6 0 12 8 12 16 0 8 8 14 18 14 9 -1 15 2
12 6 -6 10 81 101 89 92 4 -3 4 2 0 13 -4 11 -4 17 1 13 10 -10 35 10 35 28 0
8 -5 14 -11 14 -5 0 -7 -4 -4 -10 5 -9 -15 -15 -37 -11 -4 0 -4 -7 -1 -16 5
-12 2 -15 -10 -10 -10 4 -16 2 -14 -6 1 -7 -4 -11 -11 -9 -6 1 -11 -3 -10 -10
2 -7 -3 -13 -9 -14 -27 -3 -28 -5 -13 -14 12 -8 11 -10 -6 -10 -12 0 -25 -7
-28 -16 -3 -8 -10 -13 -15 -9 -6 3 -8 -4 -6 -17 4 -23 4 -23 -11 -3 -16 20
-16 20 -9 -2 5 -19 3 -22 -11 -16 -13 5 -15 3 -9 -7 6 -10 4 -12 -8 -7 -12 4
-14 2 -10 -10 4 -11 2 -14 -5 -9 -7 4 -12 2 -12 -4 0 -6 -4 -8 -10 -5 -5 3
-10 -1 -10 -9 0 -9 -13 -22 -30 -31 -16 -9 -30 -23 -30 -33 0 -15 -2 -15 -10
-2 -8 13 -10 12 -10 -3 0 -10 -11 -22 -25 -27 -22 -8 -29 -20 -27 -41 1 -4 -8
-4 -20 -1 -14 3 -19 1 -14 -6 4 -7 1 -12 -9 -12 -9 0 -13 -4 -10 -10 3 -5 -1
-10 -10 -10 -8 0 -18 -7 -21 -15 -4 -8 -10 -13 -14 -10 -4 3 -10 -2 -14 -10
-3 -9 -12 -12 -23 -8 -16 6 -17 5 -3 -12 14 -17 13 -18 -3 -12 -11 4 -20 1
-23 -8 -4 -8 -12 -15 -19 -15 -8 0 -17 -9 -20 -20 -4 -11 -11 -18 -16 -15 -5
4 -9 1 -9 -4 0 -6 -7 -11 -16 -11 -8 0 -12 -4 -9 -10 6 -9 -8 -14 -27 -11 -5
0 -8 -6 -8 -14 0 -8 -3 -14 -7 -14 -5 1 -15 1 -23 0 -13 -1 -13 -2 0 -11 8 -5
13 -10 10 -11 -3 0 -14 -2 -24 -4 -11 -2 -30 -18 -44 -35 -20 -25 -27 -29 -39
-19 -8 7 -13 8 -12 3 4 -21 -2 -35 -11 -29 -5 3 -10 1 -10 -4 0 -6 -6 -11 -14
-11 -7 0 -19 -7 -26 -15 -7 -8 -16 -12 -21 -9 -5 3 -6 -2 -3 -10 4 -11 0 -16
-15 -16 -12 0 -21 -4 -21 -10 0 -5 -7 -10 -15 -10 -7 0 -19 -8 -24 -17 -6 -10
-11 -14 -11 -10 0 4 -6 2 -14 -5 -8 -7 -11 -17 -8 -23 3 -5 -2 -4 -11 4 -15
12 -17 11 -17 -4 0 -13 -6 -16 -21 -12 -17 5 -18 3 -7 -11 11 -13 11 -15 -2
-10 -15 6 -42 -15 -34 -26 2 -3 -1 -2 -7 3 -8 6 -19 2 -33 -13 -11 -13 -29
-22 -39 -20 -9 1 -15 -1 -12 -6 4 -7 -31 -23 -48 -21 -4 1 -6 -2 -6 -6 3 -21
-3 -24 -18 -12 -15 13 -16 12 -11 -9 5 -19 4 -21 -8 -11 -13 11 -18 6 -15 -14
1 -5 -3 -6 -9 -2 -6 4 -17 1 -25 -5 -8 -7 -15 -9 -15 -4 0 5 -5 2 -10 -6 -9
-15 -13 -16 -46 -19 -8 0 -12 -5 -9 -11 3 -6 -1 -7 -9 -4 -10 4 -16 1 -16 -7
0 -7 -3 -9 -7 -6 -3 4 -13 1 -21 -6 -13 -10 -14 -9 -7 3 6 12 5 13 -6 3 -7 -7
-21 -13 -32 -13 -10 0 -16 -4 -13 -9 4 -5 -2 -8 -11 -7 -10 2 -24 -4 -31 -13
-8 -9 -11 -10 -7 -3 4 7 0 12 -9 12 -9 0 -16 -4 -16 -10 0 -5 -7 -10 -16 -10
-9 0 -13 5 -9 13 4 6 0 4 -8 -5 -8 -10 -17 -15 -21 -11 -4 4 -11 1 -16 -7 -7
-10 -10 -11 -10 -2 0 6 -5 12 -11 12 -5 0 -8 -4 -5 -8 3 -5 -1 -9 -9 -9 -8 0
-15 4 -15 9 0 5 -12 0 -27 -9 -15 -10 -24 -13 -20 -6 4 6 3 14 -3 18 -5 3 -10
2 -10 -3 0 -13 -59 -21 -67 -9 -4 6 -1 7 7 2 9 -6 11 -4 5 4 -5 9 -10 10 -18
2 -14 -14 -30 -14 -22 -1 8 13 -18 8 -27 -5 -5 -6 -8 -5 -8 3 0 6 -5 12 -11
12 -5 0 -7 -6 -4 -12 4 -7 -1 -4 -9 6 -12 15 -16 16 -16 5 0 -11 -2 -11 -8 -1
-5 8 -16 10 -27 6 -13 -5 -16 -4 -11 4 4 8 0 12 -11 12 -11 0 -23 4 -28 9 -6
6 -22 11 -37 13 -30 4 -71 41 -60 54 4 5 -1 2 -10 -5 -11 -8 -18 -9 -18 -3 0
6 -9 14 -20 17 -11 3 -20 13 -20 20 0 8 -5 17 -12 21 -7 5 -8 2 -3 -7 4 -8 -1
-5 -12 6 -11 11 -18 23 -16 28 2 4 1 7 -4 6 -28 -5 -35 1 -22 19 7 9 9 14 5
10 -5 -4 -16 -2 -24 5 -13 10 -14 9 -7 -2 5 -9 4 -12 -3 -7 -6 4 -8 14 -5 23
4 11 3 14 -5 9 -7 -4 -12 -1 -12 9 0 11 -5 15 -14 12 -10 -4 -13 0 -11 14 2
12 -4 24 -16 32 -10 6 -19 18 -19 25 0 8 -5 10 -12 6 -8 -5 -9 -2 -5 9 5 13 1
17 -16 17 -18 0 -19 2 -7 10 11 7 11 10 2 10 -7 0 -11 3 -9 8 5 8 -18 33 -25
27 -2 -2 -5 6 -5 18 -1 12 -7 23 -13 25 -5 2 -8 8 -4 13 3 5 -3 9 -13 9 -15 0
-16 2 -3 10 13 8 12 10 -4 10 -12 0 -16 5 -12 15 3 8 1 15 -4 15 -6 0 -10 9
-10 21 0 14 -5 19 -14 16 -8 -3 -13 1 -12 11 0 9 -5 16 -12 14 -8 -1 -11 2 -7
8 3 6 11 8 16 5 5 -4 9 -1 9 4 0 6 -7 11 -16 11 -8 0 -12 5 -9 10 3 6 1 10 -4
10 -6 0 -11 9 -11 20 0 11 -4 20 -10 20 -5 0 -10 9 -10 20 0 11 -6 20 -12 20
-9 0 -8 4 2 10 13 8 12 10 -3 10 -10 0 -16 4 -13 9 8 13 -4 42 -15 35 -5 -3
-6 2 -3 11 4 9 -1 24 -10 34 -9 10 -13 21 -9 24 3 4 1 7 -7 7 -10 0 -10 4 1
17 8 9 10 14 4 12 -5 -3 -19 3 -29 14 -19 20 -19 20 -1 13 18 -7 18 -6 0 14
-10 11 -14 20 -9 20 5 0 2 5 -6 10 -13 8 -13 10 -1 10 11 0 9 4 -5 15 -11 8
-14 15 -6 15 6 0 12 4 12 10 0 5 -6 7 -14 4 -7 -3 -16 2 -20 11 -3 9 -2 13 4
10 6 -3 7 1 4 9 -3 9 -11 13 -18 9 -6 -4 -5 1 3 10 9 12 10 17 2 17 -7 0 -10
4 -6 9 3 5 -1 16 -9 24 -10 9 -11 18 -5 26 5 6 6 9 3 6 -14 -9 -31 29 -28 62
1 18 -2 33 -7 33 -6 0 -7 -5 -3 -12 4 -6 3 -8 -4 -5 -5 4 -9 18 -7 32 1 16 -3
25 -11 25 -8 0 -14 5 -14 11 0 5 5 7 11 3 8 -4 8 0 0 15 -7 12 -9 26 -6 31 3
5 0 12 -6 16 -8 5 -9 3 -4 -6 6 -9 4 -11 -4 -6 -7 5 -10 10 -7 13 3 3 1 15 -5
26 -8 14 -8 18 1 12 11 -7 -2 27 -30 77 -5 10 -7 24 -4 33 4 10 0 15 -12 16
-11 0 -14 3 -6 6 14 6 16 33 2 33 -5 0 -10 12 -10 26 0 16 -4 23 -12 18 -7 -5
-8 -3 -2 7 12 20 14 40 3 33 -8 -5 -11 3 -8 22 0 4 -5 11 -13 15 -10 7 -10 9
2 9 13 1 12 2 -1 10 -11 6 -15 20 -13 40 2 17 0 29 -5 26 -5 -3 -12 1 -15 10
-8 22 -8 26 3 19 5 -3 13 -1 16 5 4 6 1 9 -7 8 -7 -2 -12 5 -12 14 1 10 -2 16
-6 13 -13 -8 -19 22 -7 34 8 8 8 11 -2 11 -7 0 -9 5 -6 10 3 6 1 10 -5 10 -6
0 -10 6 -9 13 3 23 -1 38 -9 33 -4 -2 -14 0 -22 6 -12 8 -12 9 2 4 25 -8 32
11 9 23 -24 13 -42 14 -22 2z m2452 -1544 c-10 -9 -11 -8 -5 6 3 10 9 15 12
12 3 -3 0 -11 -7 -18z m-1746 -147 c3 -6 -1 -7 -9 -4 -18 7 -21 14 -7 14 6 0
13 -4 16 -10z m1220 -1240 c3 -5 1 -10 -4 -10 -6 0 -11 5 -11 10 0 6 2 10 4
10 3 0 8 -4 11 -10z m1230 -790 c3 -5 1 -10 -4 -10 -6 0 -11 5 -11 10 0 6 2
10 4 10 3 0 8 -4 11 -10z m365 -170 c0 -5 -2 -10 -4 -10 -3 0 -8 5 -11 10 -3
6 -1 10 4 10 6 0 11 -4 11 -10z m-2055 -109 c3 -5 2 -12 -3 -15 -5 -3 -9 1 -9
9 0 17 3 19 12 6z"/>
<path d="M5506 5519 c2 -4 13 -7 24 -6 23 2 17 10 -10 12 -10 1 -17 -2 -14 -6z"/>
<path d="M5474 5486 c1 -8 5 -18 8 -22 4 -3 5 1 4 10 -1 8 -5 18 -8 22 -4 3
-5 -1 -4 -10z"/>
<path d="M5450 5461 c0 -6 4 -13 10 -16 6 -3 7 1 4 9 -7 18 -14 21 -14 7z"/>
<path d="M5417 5422 c3 -7 9 -10 12 -5 3 4 10 11 15 15 4 4 -1 6 -12 5 -12 -1
-18 -6 -15 -15z"/>
<path d="M5383 5403 c1 -14 5 -19 10 -14 5 5 17 7 26 4 13 -4 14 -3 1 5 -8 6
-17 9 -21 6 -4 -2 -9 2 -12 8 -3 7 -4 3 -4 -9z"/>
<path d="M5361 5372 c3 -19 -2 -25 -11 -12 -7 11 -10 11 -10 2 0 -8 -5 -10
-12 -6 -7 4 -10 4 -6 -1 12 -13 -12 -47 -28 -41 -9 3 -12 1 -9 -4 4 -6 -3 -14
-14 -18 -17 -6 -18 -9 -6 -25 13 -18 14 -17 20 2 4 13 11 19 18 15 7 -4 9 -4
5 1 -4 4 2 16 13 26 11 9 20 20 20 23 -2 17 0 20 7 10 4 -6 13 -4 24 7 14 14
14 18 2 23 -7 3 -13 2 -13 -2z"/>
<path d="M4456 4613 c-6 -14 -5 -15 5 -6 7 7 10 15 7 18 -3 3 -9 -2 -12 -12z"/>
<path d="M235 3820 c-3 -5 -1 -10 4 -10 6 0 11 5 11 10 0 6 -2 10 -4 10 -3 0
-8 -4 -11 -10z"/>
<path d="M1290 3376 c0 -2 8 -10 18 -17 15 -13 16 -12 3 4 -13 16 -21 21 -21
13z"/>
<path d="M5655 2300 c3 -5 8 -10 11 -10 2 0 4 5 4 10 0 6 -5 10 -11 10 -5 0
-7 -4 -4 -10z"/>
<path d="M3050 1616 c0 -2 8 -10 18 -17 15 -13 16 -12 3 4 -13 16 -21 21 -21
13z"/>
<path d="M1505 1550 c-3 -6 1 -7 9 -4 18 7 21 14 7 14 -6 0 -13 -4 -16 -10z"/>
<path d="M590 820 c0 -5 5 -10 10 -10 6 0 10 5 10 10 0 6 -4 10 -10 10 -5 0
-10 -4 -10 -10z"/>
<path d="M520 755 c0 -2 7 -8 15 -15 12 -10 15 -10 15 2 0 8 -7 15 -15 15 -8
0 -15 -1 -15 -2z"/>
<path d="M516 727 c3 -10 9 -15 12 -12 3 3 0 11 -7 18 -10 9 -11 8 -5 -6z"/>
<path d="M493 712 c1 -14 5 -18 11 -12 7 7 6 14 -1 21 -9 9 -12 7 -10 -9z"/>
<path d="M470 691 c0 -6 4 -13 10 -16 6 -3 7 1 4 9 -7 18 -14 21 -14 7z"/>
<path d="M450 659 c0 -5 5 -7 10 -4 6 3 10 8 10 11 0 2 -4 4 -10 4 -5 0 -10
-5 -10 -11z"/>
<path d="M3660 226 c0 -2 7 -9 15 -16 13 -11 14 -10 9 4 -5 14 -24 23 -24 12z"/>
</g>
</svg>
